<svg width="28" height="28" viewBox="0 0 28 28" fill="none" xmlns="http://www.w3.org/2000/svg">
<path fill-rule="evenodd" clip-rule="evenodd" d="M14 0C6.26799 0 0 6.26799 0 14C0 21.7318 6.26799 28 14 28C21.732 28 28 21.7318 28 14C28 6.26799 21.732 0 14 0ZM18.0451 15.1242C18.123 15.0741 18.1979 15.0164 18.2661 14.9482C18.5272 14.687 18.6529 14.3435 18.6467 14.0014C18.6526 13.6591 18.5267 13.3154 18.2657 13.0544C18.1978 12.9861 18.1229 12.9285 18.045 12.8784L12.814 7.64773C12.3035 7.13776 11.4758 7.13748 10.9653 7.64801C10.4547 8.15836 10.4547 8.98595 10.9653 9.49676L15.47 14.0015L10.9425 18.5297C10.432 19.04 10.432 19.8679 10.9425 20.3784C11.1979 20.6338 11.5322 20.7613 11.8667 20.7613C12.2012 20.7613 12.5357 20.6338 12.7909 20.3784L18.0451 15.1242Z" fill="#5CCD6A"/>
<path d="M18.2661 14.9482C18.1979 15.0164 18.123 15.0741 18.0451 15.1242L12.7909 20.3784C12.5357 20.6338 12.2012 20.7613 11.8667 20.7613C11.5322 20.7613 11.1979 20.6338 10.9425 20.3784C10.432 19.8679 10.432 19.04 10.9425 18.5297L15.47 14.0015L10.9653 9.49676C10.4547 8.98595 10.4547 8.15836 10.9653 7.64801C11.4758 7.13748 12.3035 7.13776 12.814 7.64773L18.045 12.8784C18.1229 12.9285 18.1978 12.9861 18.2657 13.0544C18.5267 13.3154 18.6526 13.6591 18.6467 14.0014C18.6529 14.3435 18.5272 14.687 18.2661 14.9482Z" fill="white"/>
</svg>
