<svg width="28" height="28" viewBox="0 0 28 28" fill="none" xmlns="http://www.w3.org/2000/svg">
<g clip-path="url(#clip0_1_3188)">
<path fill-rule="evenodd" clip-rule="evenodd" d="M14 0C21.732 0 28 6.26799 28 14C28 21.7318 21.732 28 14 28C6.26799 28 0 21.7318 0 14C0 6.26799 6.26799 0 14 0ZM9.95494 15.1242C9.877 15.0741 9.80215 15.0164 9.73392 14.9482C9.47277 14.687 9.34715 14.3435 9.35331 14.0014C9.34743 13.6591 9.47333 13.3154 9.73429 13.0544C9.80224 12.9861 9.87709 12.9285 9.95503 12.8784L15.186 7.64773C15.6965 7.13776 16.5242 7.13748 17.0347 7.64801C17.5453 8.15836 17.5453 8.98595 17.0347 9.49676L12.53 14.0015L17.0575 18.5297C17.568 19.04 17.568 19.8679 17.0575 20.3784C16.8021 20.6338 16.4678 20.7613 16.1333 20.7613C15.7988 20.7613 15.4643 20.6338 15.2091 20.3784L9.95494 15.1242Z" fill="#5CCD6A"/>
<path d="M9.73392 14.9482C9.80215 15.0164 9.877 15.0741 9.95494 15.1242L15.2091 20.3784C15.4643 20.6338 15.7988 20.7613 16.1333 20.7613C16.4678 20.7613 16.8021 20.6338 17.0575 20.3784C17.568 19.8679 17.568 19.04 17.0575 18.5297L12.53 14.0015L17.0347 9.49676C17.5453 8.98595 17.5453 8.15836 17.0347 7.64801C16.5242 7.13748 15.6965 7.13776 15.186 7.64773L9.95503 12.8784C9.87709 12.9285 9.80224 12.9861 9.73429 13.0544C9.47333 13.3154 9.34743 13.6591 9.35331 14.0014C9.34715 14.3435 9.47277 14.687 9.73392 14.9482Z" fill="white"/>
</g>
<defs>
<clipPath id="clip0_1_3188">
<rect width="28" height="28" fill="white" transform="matrix(-1 0 0 1 28 0)"/>
</clipPath>
</defs>
</svg>
